<svg fill="none" viewBox="0 0 136 48" xmlns="http://www.w3.org/2000/svg">
  <path fill="#9FA6B2" fill-rule="evenodd" d="M38.455 13.018c.004.01.01.02.012.03a.654.654 0 01.022.164v8.586a.628.628 0 01-.311.543l-7.138 4.15v8.223a.628.628 0 01-.312.543l-14.899 8.66a.532.532 0 01-.108.044c-.014.006-.027.014-.042.018a.611.611 0 01-.318 0 .16.16 0 01-.028-.011l-.02-.01c-.035-.012-.07-.023-.103-.042L.311 35.257A.628.628 0 010 34.714V8.956a.68.68 0 01.021-.163c.006-.019.016-.035.022-.053l.02-.053a.328.328 0 01.02-.044c.012-.02.029-.037.043-.056.018-.025.033-.051.055-.073.018-.018.04-.031.06-.047.023-.018.044-.038.069-.053l7.45-4.33a.616.616 0 01.62 0l7.45 4.33c.025.015.046.035.069.053l.021.016c.014.01.028.02.04.031a.346.346 0 01.04.051l.015.022c.013.019.03.035.042.056.017.03.028.064.04.097l.01.022.012.03a.643.643 0 01.021.164v16.088l6.208-3.608v-8.224a.64.64 0 01.022-.163c.005-.019.015-.035.021-.053l.007-.02a.47.47 0 01.033-.077.273.273 0 01.026-.036.455.455 0 00.017-.02c.018-.025.034-.051.055-.073.01-.01.02-.017.03-.025.01-.007.021-.014.03-.022l.036-.03a.265.265 0 01.033-.023l7.45-4.33a.616.616 0 01.62 0l7.45 4.33c.026.015.046.036.069.053l.022.016c.013.01.027.02.038.031a.328.328 0 01.04.052l.016.021a.46.46 0 00.016.02c.01.012.019.023.026.036a.52.52 0 01.034.08l.006.017.01.022zM9.322 30.453l6.196 3.54 13.652-7.867-6.201-3.605-13.647 7.932zm20.476-5.409v-7.14l-6.208-3.607v7.14l6.207 3.607zm6.826-11.831l-6.206-3.607-6.205 3.607 6.205 3.606 6.206-3.606zm-27.933.435v15.726l6.208-3.609V10.04L8.69 13.648zm5.584-4.692L8.07 5.35 1.864 8.956l6.206 3.607 6.205-3.607zM7.449 13.65l-6.208-3.61v24.31L14.9 42.29v-7.21l-7.135-4.076-.002-.001L7.759 31c-.025-.015-.045-.035-.067-.053a.464.464 0 00-.022-.015.27.27 0 01-.037-.03l-.002-.002c-.013-.013-.024-.029-.035-.044a.623.623 0 00-.016-.022l-.03-.038a.195.195 0 01-.016-.023l-.001-.002a.258.258 0 01-.023-.054l-.01-.024-.015-.033a.234.234 0 01-.014-.038v-.001a.374.374 0 01-.01-.067l-.003-.025a.488.488 0 00-.004-.026c-.002-.014-.005-.029-.005-.044V13.648zm8.691 21.43v7.21l13.657-7.937v-7.144l-13.657 7.87zm14.9-10.037l6.208-3.608v-7.14l-6.208 3.609v7.14z" clip-rule="evenodd"/>
  <path fill="#9FA6B2" d="M132.739 13.214H136V34.36h-3.261V13.214zm-84.346.001h3.441v18.034h6.463v3.111h-9.904V13.215z"/>
  <path fill="#9FA6B2" fill-rule="evenodd" d="M68.576 20.525c.808.403 1.43.956 1.87 1.661v-1.903h3.261V34.36h-3.261v-1.903c-.439.705-1.062 1.259-1.87 1.661-.808.403-1.621.604-2.44.604-1.057 0-2.024-.196-2.902-.589a6.79 6.79 0 01-2.26-1.616 7.525 7.525 0 01-1.465-2.356 7.668 7.668 0 01-.524-2.84c0-.986.174-1.928.524-2.824a7.494 7.494 0 011.466-2.371 6.798 6.798 0 012.26-1.616c.877-.393 1.844-.59 2.902-.59.818 0 1.63.202 2.439.605zm.733 9.938a4.37 4.37 0 00.838-1.42 4.987 4.987 0 00.3-1.721c0-.605-.101-1.179-.3-1.722a4.373 4.373 0 00-.838-1.42 4.057 4.057 0 00-1.302-.967 3.892 3.892 0 00-1.69-.362c-.62 0-1.178.12-1.677.362a4.105 4.105 0 00-1.286.967c-.36.403-.634.876-.823 1.42a5.184 5.184 0 00-.284 1.722c0 .604.094 1.178.284 1.721a4.17 4.17 0 00.823 1.42c.36.403.788.725 1.286.967a3.793 3.793 0 001.676.362c.618 0 1.182-.12 1.691-.362a4.047 4.047 0 001.302-.967zm27.649-8.277c-.44-.705-1.063-1.258-1.87-1.661-.808-.403-1.621-.604-2.44-.604-1.057 0-2.024.196-2.902.589a6.798 6.798 0 00-2.26 1.616 7.492 7.492 0 00-1.465 2.371 7.71 7.71 0 00-.524 2.825c0 1.007.174 1.953.524 2.84a7.523 7.523 0 001.466 2.355 6.788 6.788 0 002.26 1.616c.877.393 1.844.59 2.902.59.818 0 1.63-.202 2.439-.605.808-.402 1.43-.956 1.87-1.66v1.902h3.261V20.283h-3.261v1.903zm-.3 6.857a4.37 4.37 0 01-.838 1.42 4.046 4.046 0 01-1.301.967 3.892 3.892 0 01-1.691.362c-.618 0-1.177-.12-1.676-.362a4.094 4.094 0 01-1.286-.967 4.158 4.158 0 01-.823-1.42 5.181 5.181 0 01-.285-1.721c0-.605.095-1.179.285-1.722a4.146 4.146 0 01.823-1.42 4.101 4.101 0 011.286-.967 3.793 3.793 0 011.676-.362c.618 0 1.182.12 1.69.362.51.242.943.565 1.302.967.36.403.639.876.839 1.42.198.543.299 1.117.299 1.722 0 .604-.1 1.178-.3 1.721z" clip-rule="evenodd"/>
  <path fill="#9FA6B2" d="M76.281 34.36h3.262V23.523h5.596v-3.24H76.28V34.36zm32.916-3.297l4.099-10.78h3.304l-5.354 14.077h-4.099l-5.353-14.077h3.303l4.1 10.78z"/>
  <path fill="#9FA6B2" fill-rule="evenodd" d="M123.714 19.921c-3.994 0-7.156 3.314-7.156 7.4 0 4.519 3.06 7.401 7.574 7.401 2.526 0 4.139-.975 6.109-3.098l-2.203-1.721c-.002.001-1.664 2.204-4.145 2.204-2.884 0-4.099-2.348-4.099-3.562h10.821c.568-4.65-2.46-8.624-6.901-8.624zm-3.911 6.177c.025-.27.401-3.562 3.885-3.562s3.907 3.291 3.931 3.562h-7.816z" clip-rule="evenodd"/>
</svg>
